Patient4_TMGait_0pt6_01_left_19_EMG.mot
version=1
nRows=23
nColumns=33
inDegrees=no
endheader
time	1LAddLong	2LGlutMax	3LGlutMed	4LIliopsoas	5LSemiMemb	6LBicFemLong	7LRecFem	8LVastMed	9LVastLat	10LGasMed	11LTibAnt	12lTibPost	13LPeroneusLong	14LSol	15LExtDigLong	16LFlexDigLong	17RAddLong	18RGlutMax	19RGlutMed	20RIliopsoas	21RSemiMemb	22RBicFemLong	23RRecFem	24RVastMed	25RVastLat	26RGasMed	27RTibAnt	28RTibPost	29RPeroneusLong	30RSol	31RExtDigLong	32RFlexDigLong
23.93	-0.025787	-0.03891	0.0383	0.007782	-0.006866	-0.053406	-0.11704	-0.003052	-0.01358	-0.33722	0.010986	0.007477	-0.003357	0.11612	0.024719	-0.40985	0.084686	-0.26764	0.11047	-0.07019	0.058899	0.11139	0.023499	-0.14542	0.050049	0.016937	-0.14633	0.001831	0.054474	0.12711	-0.007935	-0.010986
23.931	0.005493	-0.005493	0.054626	0.004578	-0.023346	-0.05722	-0.085297	-0.009155	-0.007935	-0.25604	0.003357	0.015411	-0.02655	0.11429	0.029907	0.048065	0.056152	-0.21988	0.15579	-0.079803	-0.025482	0.097198	-0.1593	-0.12894	0.72388	-0.002747	0.029755	0.000763	-0.3743	0.13489	-0.002289	-0.012665
23.932	0.014954	-0.009613	0.080566	-0.002289	0.006104	-0.045013	-0.064545	-0.009003	-0.004578	-0.097504	0.009918	-0.008087	-0.005493	0.16922	0.020142	0.033569	0.013428	-0.1619	0.18829	-0.092316	-0.077057	0.10071	-0.22995	0.006256	0.58502	-0.006409	0.097351	0.001526	-0.33722	0.075226	-0.002441	-0.000458
23.933	-0.049896	0.036926	0.079193	0.00473	0.017395	0.037384	-0.034027	-0.000916	-0.010071	0.336	0.00885	-0.013123	0	0.25482	0.039368	-0.001984	-0.048828	-0.083618	0.071564	-0.049744	0.062256	0.20081	-0.24429	0.04715	0.29205	-0.001984	0.052948	0.003052	-0.29007	0.018158	-0.00412	0.000305
23.934	0.033112	0.002289	0.069885	0.010223	-0.005798	0.097504	-0.040131	-0.007324	-0.001678	0.4071	0.007782	-0.009613	0.006714	0.31967	0.041046	-0.03067	-0.045471	0.071869	-0.042572	0.073547	0.025635	0.27969	-0.16525	-0.069885	-0.11429	0.020447	-0.033112	0.00824	0.3241	-0.053253	-0.006866	-0.00061
23.935	0.013123	-0.003204	0.0737	-0.000305	0	0.11597	-0.026855	0.000153	-0.008545	0.0914	-0.001831	-0.012665	0.011749	0.40466	0.028076	0.002899	-0.036011	0.14267	0.010834	0.083313	0.36194	0.1915	-0.071259	-0.064545	-0.2945	-0.005341	-0.045776	0.001068	0.76858	-0.015564	-0.004578	-0.003815
23.936	0.017853	0.023804	0.080109	0.010681	-0.018005	0.08728	-0.026398	-0.014343	0.001221	0.16403	0.005798	-0.004578	0.004425	0.25085	0.012207	-0.099487	-0.029449	0.13016	0.10269	0.032959	0.36529	0.13443	-0.11108	-0.013428	-0.4538	-0.006866	-0.016937	0.005035	0.54489	0.010529	-0.002594	-0.005798
23.937	0.004425	-0.035553	0.089264	0.007477	-0.010071	0.036163	-0.018768	-0.001831	-0.003815	0.005188	0.006714	-0.000153	0.003967	0.11154	0.015564	-0.046539	-0.015259	0.1387	-0.006409	0.017548	0.29327	0.10605	-0.022278	0.075378	-0.66406	-0.007172	-0.06546	0.006866	0.7489	0.019836	-0.005951	-0.006409
23.938	0.004425	-0.013885	0.11108	0.006561	0.031586	-0.21729	-0.045776	0.000763	-0.00946	-0.16281	0.005493	0.007629	0.000763	0.038147	0.021057	-0.070801	-0.042725	0.061188	-0.02594	0.005035	0.19913	0.13886	-0.024872	0.08194	-0.71518	0.008087	0.1506	0.00885	-0.68802	0.043793	-0.005035	-0.004883
23.939	-0.000153	-0.041046	0.1326	0.001373	0.04776	-0.20447	-0.019073	-0.009918	0.005341	-0.15686	0.011139	0.010529	0.001678	0.063934	0.021973	0.055695	-0.05249	-0.026855	0.044861	-0.02243	0.16708	0.10788	0.15198	0.002441	-0.5014	-0.005646	0.19287	0.006714	-1.1801	0.035095	-0.001678	-0.003204
23.94	0.00412	-0.041351	0.14999	0.00351	0.035706	-0.073547	-0.025177	0.005798	-0.019836	-0.14374	0.007782	0.001373	-0.003967	0.064087	0.005951	0.16693	-0.03067	-0.13016	0.22659	0.02182	0.15808	0.22751	0.10513	0.04364	0.007019	-0.002594	0.17868	0.010071	-0.35202	-0.007782	0.001221	-0.009918
23.941	0.008698	-0.028687	0.15305	0.015259	-0.041656	-0.073853	-0.040741	-0.009003	-0.018768	-0.010071	0.012207	-0.008545	-0.019989	-0.043945	-0.000763	-0.072479	-0.000153	-0.1712	0.27847	0.02655	0.1831	0.2182	0.07843	-0.16312	0.5069	-0.003967	0.26611	0.007935	1.1835	-0.015411	-0.004272	-0.007019
23.942	0.011902	-0.010986	0.12894	0.000458	-0.12268	-0.055695	-0.039063	-0.016327	-0.01358	-0.10147	0.013123	-0.005188	-0.020905	-0.019836	0.006866	-0.038605	0.005493	-0.17822	0.24582	0.044708	0.28641	-0.044556	-0.072174	-0.31937	0.53833	-0.00946	0.085907	0.005341	0.89371	0.026703	-0.002899	-0.000153
23.943	0.018005	-0.014954	0.13138	0.001678	-0.074768	0.058899	-0.047607	0.003204	-0.007172	0.11383	0.003204	-0.000763	-0.000305	0.006866	0.002899	-0.009003	-0.018768	-0.11307	0.24155	0.048828	0.1918	-0.070496	-0.27771	-0.37003	0.34531	-0.007019	-0.070496	0.007019	0.11643	0.022736	-0.00412	-0.013733
23.944	0.008392	-0.0383	0.13779	0.010376	-0.098419	0.13519	0.003967	-0.001984	-0.041656	0.027618	-0.004578	0.003967	-0.011597	0.036774	0.031891	0.001068	-0.024567	-0.032959	0.20203	0.038605	0.15671	0.063477	-0.3447	-0.22736	0.31097	-0.007324	-0.13458	0.007324	-0.28885	0.011597	-0.007324	0.000153
23.945	0.006866	-0.014496	0.15503	0.020142	0.060272	0.062256	0.01358	-0.010529	-0.035706	-0.013428	0.005798	0.003815	-0.037079	0.014038	0.049133	-0.043488	-0.011597	0.039978	0.070648	-0.001831	0.23987	0.036011	-0.24338	-0.12054	0.44861	-0.007324	-0.098419	0.006866	-0.67047	-0.002594	-0.005493	-0.004578
23.946	0.011597	-0.014343	0.20874	0.009155	0.13794	0.034943	-0.003967	0.003052	-0.024414	0.26093	0.014496	-0.081024	-0.026093	0.025177	0.050049	0.19562	0.00824	-0.054626	0.016327	-0.050049	0.15732	-0.12024	-0.11795	-0.041656	0.22201	0.000305	0.007477	0.00946	0.12863	0.000916	0.001831	-0.00824
23.947	0.021973	0.015717	0.22171	-0.00824	0.071564	0.015411	0.011749	-0.02121	-0.014648	0.49957	0.027924	-0.29007	-0.043182	-0.090942	0.030518	-0.39078	0.015564	-0.084686	-0.028687	-0.06485	0.10971	-0.18112	-0.11292	0.46204	-0.14374	0.004883	0.16785	0.006256	0.35858	0.009918	-0.000916	-0.016022
23.948	0.009918	-0.018311	0.22797	0.002747	0.034637	-0.032043	0.00351	-0.008545	-0.015869	0.51209	0.017395	0.50629	0.016327	-0.27939	-0.014343	0.10971	0.001221	-0.16495	-0.05127	-0.001678	0.079803	-0.14511	-0.083923	0.53543	-0.40802	-0.009155	0.38574	0.00473	0.37781	-0.000763	0.001984	-0.014648
23.949	0.006561	0.019073	0.22247	0.001984	0.030212	-0.023193	-0.000305	0	-0.022736	0.46509	0.010376	0.087891	0.076447	-0.19592	-0.021362	-0.81116	0.003204	-0.18784	-0.040436	0.075226	0.14053	-0.12711	-0.039825	0.38437	-0.57724	-0.008087	0.699	0.008698	0.54398	-0.046997	-0.00473	-0.009613
23.95	0.004425	-0.00473	0.21927	0.011292	0.014496	-0.007629	-0.003815	-0.002747	-0.013885	0.37796	-0.002747	-0.20187	0.029297	-0.005798	-0.019836	0.16419	0.004883	-0.31479	0.26169	0.046234	0.095367	-0.097961	-0.20187	0.17777	-0.53406	-0.011749	0.69809	0.005035	0.36133	-0.01709	-0.002441	-0.004272
23.951	-0.001526	0.011597	0.22476	0.005188	-0.046082	0.036469	-0.017853	0.003052	-0.011139	0.097656	-0.004425	-0.11032	-0.047302	0.16724	-0.031433	0.98511	-0.026855	-0.39032	0.16144	0.055237	0.081024	0.000305	-0.41931	-0.11917	-0.26352	-0.008545	0.69458	0.003204	-0.3241	-0.085907	-0.004272	0.00061
23.952	-0.005646	0.070953	0.20828	0.000153	-0.12054	0.007324	-0.014038	-0.005035	0.007324	-0.23422	-0.006104	0.066681	-0.15366	0.42496	-0.037689	-0.23483	-0.017853	-0.26154	-0.17349	-0.00351	0.1767	0.039368	-0.49972	-0.17609	0.30838	-0.004272	0.49011	0.006256	0.39337	-0.19028	-0.003357	0.002136
